<?xml version="1.0" encoding="utf-8" standalone="yes"?>
<!DOCTYPE svg PUBLIC "-//W3C//DTD SVG 1.1//EN" "http://www.w3.org/Graphics/SVG/1.1/DTD/svg11.dtd">
<svg width="444" height="770" viewBox="0 0 444 770" style="fill:none;stroke:none;fill-rule:evenodd;clip-rule:evenodd;stroke-linecap:round;stroke-linejoin:round;stroke-miterlimit:1.5;" version="1.1" xmlns="http://www.w3.org/2000/svg" xmlns:xlink="http://www.w3.org/1999/xlink"><style class="text-font-style fontImports" data-font-family="Roboto">@import url('https://fonts.googleapis.com/css2?family=Roboto:wght@400;700&amp;display=block');</style><rect id="" x="0" y="0" width="444" height="770" style="fill: #ffffff;"></rect><g id="items" style="isolation: isolate"><g id="blend" style="mix-blend-mode: normal"><g id="g-root-tf_4mxpunnxesr1-fill" data-item-order="-512820"><g id="tf_4mxpunnxesr1-fill" stroke="none" fill="#ffffff"><g><path d="M 0 0L 444 0L 444 770L 0 770Z"></path></g></g></g><g id="g-root-ro_1cz9ezjnwzd37-fill" data-item-order="-18432" transform="translate(212, 250)"><g id="ro_1cz9ezjnwzd37-fill" stroke="none" fill="#1eabda"><g><path d="M 22 10L 190 10C 190 10 202 10 202 22L 202 94C 202 94 202 106 190 106L 22 106C 22 106 10 106 10 94L 10 22C 10 22 10 10 22 10"></path></g></g></g><g id="g-root-ro_1lw5dennwwjr5-fill" data-item-order="-16128" transform="translate(24, 250)"><g id="ro_1lw5dennwwjr5-fill" stroke="none" fill="#1eabda"><g><path d="M 22 10L 166 10C 166 10 178 10 178 22L 178 94C 178 94 178 106 166 106L 22 106C 22 106 10 106 10 94L 10 22C 10 22 10 10 22 10"></path></g></g></g><g id="g-root-ro_1uneyvznxg83y-fill" data-item-order="-13824" transform="translate(106, 122)"><g id="ro_1uneyvznxg83y-fill" stroke="none" fill="#a3a3a3"><g><path d="M 22 10L 190 10C 190 10 202 10 202 22L 202 70C 202 70 202 82 190 82L 22 82C 22 82 10 82 10 70L 10 22C 10 22 10 10 22 10"></path></g></g></g><g id="g-root-ro_1umskynnx0rnk-fill" data-item-order="-12096" transform="translate(118, 402)"><g id="ro_1umskynnx0rnk-fill" stroke="none" fill="#1eabda"><g><path d="M 22 10L 166 10C 166 10 178 10 178 22L 178 70C 178 70 178 82 166 82L 22 82C 22 82 10 82 10 70L 10 22C 10 22 10 10 22 10"></path></g></g></g><g id="g-root-ro_zn6fj3nx6cy6-fill" data-item-order="-12096" transform="translate(118, 640)"><g id="ro_zn6fj3nx6cy6-fill" stroke="none" fill="#1eabda"><g><path d="M 22 10L 166 10C 166 10 178 10 178 22L 178 70C 178 70 178 82 166 82L 22 82C 22 82 10 82 10 70L 10 22C 10 22 10 10 22 10"></path></g></g></g><g id="g-root-ro_dj7acfnx261b-fill" data-item-order="-5832" transform="translate(276, 530)"><g id="ro_dj7acfnx261b-fill" stroke="none" fill="#1eabda"><g><path d="M 22 10L 106 10C 106 10 118 10 118 22L 118 52C 118 52 118 64 106 64L 22 64C 22 64 10 64 10 52L 10 22C 10 22 10 10 22 10"></path></g></g></g><g id="g-root-ro_1lr5kprnx27eq-fill" data-item-order="-5832" transform="translate(148, 530)"><g id="ro_1lr5kprnx27eq-fill" stroke="none" fill="#1eabda"><g><path d="M 22 10L 106 10C 106 10 118 10 118 22L 118 52C 118 52 118 64 106 64L 22 64C 22 64 10 64 10 52L 10 22C 10 22 10 10 22 10"></path></g></g></g><g id="g-root-ro_6htsvnx0r9h-fill" data-item-order="-5832" transform="translate(20, 530)"><g id="ro_6htsvnx0r9h-fill" stroke="none" fill="#1eabda"><g><path d="M 22 10L 106 10C 106 10 118 10 118 22L 118 52C 118 52 118 64 106 64L 22 64C 22 64 10 64 10 52L 10 22C 10 22 10 10 22 10"></path></g></g></g><g id="g-root-tx_bopteste_qva9svnx6dc8-fill" data-item-order="0" transform="translate(14, 38)"><g id="tx_bopteste_qva9svnx6dc8-fill" stroke="none" fill="#484848"><g><text style="font: 25px Roboto, sans-serif; white-space: pre;" font-size="25px" font-family="Roboto, sans-serif"><tspan x="13.45" y="42" dominant-baseline="ideographic">BOPTEST Experimental Framework</tspan></text></g></g></g><g id="g-root-cu_zqasynnx6ex6-fill" data-item-order="2" transform="translate(74, 474)"></g><g id="g-root-cu_vb3rxbnx6cjp-fill" data-item-order="2" transform="translate(202, 474)"></g><g id="g-root-cu_vb3rxbnx6cjr-fill" data-item-order="2" transform="translate(202, 474)"></g><g id="g-root-cu_zqasynnx6ewz-fill" data-item-order="2" transform="translate(202, 194)"></g><g id="g-root-cu_vb3rxbnx6cjt-fill" data-item-order="2" transform="translate(74, 584)"></g><g id="g-root-cu_vb3rxbnx6cjw-fill" data-item-order="2" transform="translate(202, 584)"></g><g id="g-root-cu_zqasynnx6ex4-fill" data-item-order="2" transform="translate(202, 346)"></g><g id="g-root-cu_1464b33nx6e4o-fill" data-item-order="2" transform="translate(108, 194)"></g><g id="g-root-cu_zqasynnx6ex1-fill" data-item-order="2" transform="translate(108, 346)"></g><g id="g-root-cu_qva9svnx6dc6-fill" data-item-order="2" transform="translate(202, 584)"></g><g id="g-root-ic_robo_1q6z2u7nx0rnz-fill" data-item-order="999999100" transform="translate(130, 423)"><g id="ic_robo_1q6z2u7nx0rnz-fill" stroke="none" fill="#484848"><g><path d="M 32.467503 14.04625L 32.467503 11.45C 32.467503 10.759645 33.027145 10.2 33.717503 10.2C 34.407856 10.2 34.967503 10.759645 34.967503 11.45L 34.967503 14.04625L 37.25375 14.04625C 38.63446 14.04625 39.75375 15.165538 39.75375 16.546249L 39.75375 20.938751C 39.75375 22.319462 38.63446 23.438751 37.25375 23.438751L 30.178749 23.438751C 28.798038 23.438751 27.678749 22.319462 27.678749 20.938751L 27.678749 16.546249C 27.678749 15.165538 28.798038 14.04625 30.178749 14.04625L 32.466248 14.04625ZM 31.466251 20.4825C 30.948484 20.4825 30.528751 20.062767 30.528751 19.545L 30.528751 17.945C 30.528751 17.427233 30.948484 17.0075 31.466251 17.0075C 31.984016 17.0075 32.403751 17.427233 32.403751 17.945L 32.403751 19.545C 32.403751 20.062767 31.984016 20.4825 31.466251 20.4825ZM 35.032497 19.545C 35.032501 20.062767 35.452236 20.4825 35.970001 20.4825C 36.487766 20.4825 36.907501 20.062767 36.907501 19.545L 36.907497 17.945C 36.907501 17.427233 36.487766 17.0075 35.970001 17.0075C 35.452236 17.0075 35.032501 17.427233 35.032501 17.945L 35.032497 19.545ZM 26.139999 14.8625C 25.917912 15.396021 25.804041 15.968351 25.804998 16.546249L 25.805 20.938751C 25.805 23.354996 27.763756 25.313751 30.18 25.313751L 35.0425 25.313751C 35.710266 26.221159 35.951534 27.37364 35.703808 28.472704C 35.456078 29.571768 34.743729 30.509304 33.751251 31.0425C 34.164642 32.009918 34.093903 33.116184 33.560673 34.023079C 33.027439 34.929966 32.095116 35.52964 31.048752 35.638752L 31.048752 35.657497C 31.020924 35.654568 30.992977 35.652897 30.965 35.6525C 29.782501 35.6325 29.147499 35.0975 28.827499 34.607502C 28.54336 34.17445 27.962 34.053665 27.528879 34.337696C 27.095758 34.621727 26.974829 35.203056 27.258751 35.63625C 27.846251 36.530003 28.89875 37.348751 30.493752 37.502502C 29.700785 38.922905 28.20051 39.802212 26.57375 39.799999C 25.598751 39.799999 24.696251 39.489998 23.96125 38.963749L 23.96125 15.67875C 24.58625 15.23125 25.331251 14.94125 26.139999 14.8625ZM 19.471251 14.8425C 20.4475 14.8425 21.35 15.1525 22.08625 15.68L 22.08625 19.217501C 22.103798 19.857012 21.854771 20.475052 21.39875 20.92375C 20.981251 21.345001 20.52125 21.526249 20.32375 21.54875C 19.983942 21.577698 19.686657 21.788893 19.547466 22.100233C 19.408272 22.411573 19.449131 22.773943 19.654156 23.046473C 19.85918 23.319 20.196028 23.458694 20.533751 23.411251C 21.02125 23.356251 21.575001 23.133751 22.08625 22.782499L 22.08625 38.962502C 21.35 39.489998 20.44875 39.799999 19.471251 39.799999C 17.84449 39.802212 16.344215 38.922905 15.55125 37.502499C 17.14625 37.349998 18.200001 36.530003 18.786249 35.63625C 19.070171 35.203056 18.949242 34.621727 18.516121 34.337696C 18.082998 34.053665 17.50164 34.17445 17.217501 34.607502C 16.897501 35.0975 16.262501 35.6325 15.08 35.6525C 15.052022 35.652901 15.024076 35.654568 14.99625 35.657501L 14.995 35.639999C 13.948634 35.530888 13.016313 34.931217 12.48308 34.024326C 11.949846 33.117435 11.879111 32.011169 12.2925 31.043751C 11.032002 30.365286 10.246353 29.048988 10.2475 27.617498C 10.2475 26.2925 10.90625 25.12875 11.9125 24.424999C 13.2225 23.74625 14.45 24.037498 14.995 24.571249C 15.368126 24.912399 15.944551 24.896238 16.297976 24.534719C 16.6514 24.173201 16.654509 23.596558 16.305 23.231251C 15.2925 22.24 13.66375 21.89875 12.065 22.356251C 12.306276 20.881596 13.503974 19.750435 14.990001 19.59375C 14.915868 18.35918 15.35498 17.148817 16.20347 16.24897C 17.051958 15.349122 18.234457 14.839716 19.471251 14.84125Z"></path></g></g></g><g id="g-root-ic_1_4mbbxbnx0qh8-fill" data-item-order="999999100" transform="translate(32, 542)"><g id="ic_1_4mbbxbnx0qh8-fill" stroke="none" fill="#484848"><g><path d="M 16.860001 12.45C 18.90987 11.054664 21.332798 10.309751 23.8125 10.3125C 26.1325 10.3125 28.032499 10.79125 29.622499 11.6675C 31.2125 12.5425 32.456249 13.7925 33.493752 15.28625C 35.195 17.7325 36.388748 20.908751 37.642502 24.244999C 37.900002 24.93 38.158752 25.620001 38.42625 26.3125C 38.610386 26.793015 38.546532 27.333342 38.25547 27.757704C 37.964409 28.182066 37.483334 28.436224 36.96875 28.437498L 35.21875 28.4375L 35.21875 31.5625C 35.21875 33.978745 33.259998 35.937504 30.843752 35.9375L 29.59375 35.9375L 29.59375 39.0625C 29.59375 39.407677 29.313929 39.6875 28.96875 39.6875L 15.84375 39.6875C 15.498572 39.6875 15.21875 39.407677 15.21875 39.0625L 15.21875 31.5C 12.555742 28.920307 11.194794 25.279316 11.512803 21.585365C 11.830812 17.891411 13.794025 14.536596 16.858749 12.45ZM 17.862499 17.971251L 18.75375 17.971251L 18.75375 19.766251C 18.75375 20.284018 19.173483 20.703751 19.69125 20.703751C 20.209017 20.703751 20.62875 20.284018 20.62875 19.766251L 20.62875 17.971251L 21.52 17.971251C 21.910564 17.971577 22.260414 17.729736 22.398098 17.364246C 22.535784 16.998755 22.432455 16.586195 22.13875 16.328751L 20.309999 14.7225C 19.956089 14.411582 19.426413 14.411582 19.0725 14.7225L 17.24375 16.328751C 16.950047 16.586195 16.846716 16.998755 16.984402 17.364246C 17.122086 17.729736 17.471935 17.971577 17.862499 17.971251ZM 18.75375 26.008751L 17.862499 26.008751C 17.471935 26.009079 17.122086 25.767235 16.984402 25.401747C 16.846716 25.036255 16.950047 24.623695 17.24375 24.366249L 19.0725 22.758749C 19.426413 22.447832 19.956089 22.447832 20.309999 22.758751L 22.13875 24.366249C 22.431479 24.623888 22.534157 25.035828 22.396593 25.400717C 22.259029 25.765604 21.909958 26.007235 21.52 26.007502L 20.62875 26.0075L 20.62875 27.803749C 20.62875 28.321518 20.209017 28.741249 19.69125 28.741249C 19.173483 28.741249 18.75375 28.321518 18.75375 27.803749L 18.75375 26.0075ZM 25.60375 17.971251L 26.49625 17.971251L 26.49625 19.766251C 26.49625 20.284018 26.915985 20.703751 27.43375 20.703751C 27.951517 20.703751 28.37125 20.284018 28.37125 19.766251L 28.37125 17.971251L 29.26125 17.971251C 29.651815 17.971577 30.001663 17.729736 30.139349 17.364246C 30.277035 16.998755 30.173704 16.586195 29.880001 16.328751L 28.05125 14.7225C 27.697338 14.411582 27.167662 14.411582 26.813751 14.7225L 24.985001 16.328751C 24.691296 16.586195 24.587967 16.998755 24.725651 17.364246C 24.863337 17.729736 25.213186 17.971577 25.60375 17.971251ZM 26.49625 26.008751L 25.60375 26.008751C 25.213186 26.009079 24.863337 25.767235 24.725651 25.401747C 24.587967 25.036255 24.691296 24.623695 24.985001 24.366249L 26.813751 22.758749C 27.167662 22.447832 27.697338 22.447832 28.05125 22.758751L 29.880001 24.366249C 30.172729 24.623888 30.275404 25.035828 30.137844 25.400717C 30.000282 25.765604 29.651207 26.007235 29.26125 26.007502L 28.37125 26.0075L 28.37125 27.803749C 28.37125 28.321518 27.951517 28.741249 27.43375 28.741249C 26.915985 28.741249 26.49625 28.321518 26.49625 27.803749L 26.49625 26.0075Z"></path></g></g></g><g id="g-root-ic_mq_1lr5kprnx27ep-fill" data-item-order="999999100" transform="translate(160, 542)"><g id="ic_mq_1lr5kprnx27ep-fill" stroke="none" fill="#484848"><g><path d="M 30.721249 11.7725C 29.792002 11.771427 28.903427 12.153538 28.264999 12.82875C 27.190001 12.54375 26.118752 12.44875 25 12.44875C 23.99 12.44875 22.842501 12.5425 21.73625 12.83C 20.658953 11.689007 18.938547 11.438393 17.580507 12.224627C 16.222467 13.01086 15.583172 14.627617 16.036249 16.129999C 14.475 17.64625 13.3375 19.692501 12.775 21.844999C 11.277633 22.231119 10.232286 23.58288 10.235233 25.129227C 10.23818 26.675575 11.288671 28.02334 12.7875 28.403749C 13.36875 30.601252 14.55875 32.493752 16.112499 34.043751C 15.763773 35.477539 16.384373 36.971985 17.646187 37.736961C 18.908001 38.501938 20.520035 38.361038 21.629999 37.388748C 22.7425 37.696251 23.845001 37.796249 25 37.796249C 26.154999 37.796249 27.2575 37.696251 28.370001 37.389999C 29.478113 38.361382 31.087463 38.503937 32.349072 37.742458C 33.61068 36.98098 34.234421 35.490585 33.891251 34.057499C 35.496311 32.515541 36.643608 30.559689 37.206249 28.40625C 38.680359 28.035875 39.72686 26.728361 39.765312 25.208923C 39.803764 23.689484 38.824738 22.330711 37.37125 21.88625C 36.807499 19.5975 35.602501 17.651249 33.986248 16.0525C 34.264343 15.034281 34.051922 13.944622 33.411736 13.105416C 32.771545 12.266211 31.776762 11.773376 30.721249 11.7725ZM 17.5625 32.00375C 18.647404 31.299965 20.038565 31.276075 21.146994 31.942196C 22.255423 32.608315 22.88726 33.847946 22.775 35.13625C 23.463749 35.278748 24.1875 35.33625 25.001251 35.33625C 25.813749 35.33625 26.53875 35.278748 27.22875 35.13625C 27.116989 33.844791 27.752855 32.602985 28.866028 31.938753C 29.979202 31.274521 31.374016 31.304619 32.4575 32.016251C 33.522152 30.906603 34.305656 29.558186 34.7425 28.08375C 34.052631 27.700344 33.517834 27.088642 33.23 26.353748L 29.158749 26.35375C 29.295 27.205 29.56875 28.01 29.94875 28.77125C 30.126125 29.126352 30.056459 29.555107 29.775784 29.835783C 29.495108 30.116461 29.066351 30.186127 28.71125 30.008751C 27.581705 29.43012 26.331614 29.126057 25.0625 29.121248C 23.7938 29.126207 22.544151 29.430269 21.415001 30.008751C 21.059898 30.186127 20.631144 30.116461 20.350468 29.835783C 20.06979 29.555107 20.000126 29.126352 20.1775 28.77125C 20.562775 28.010609 20.828798 27.195248 20.966249 26.353748L 16.772501 26.35375C 16.484211 27.09017 15.947963 27.702898 15.25625 28.08625C 15.7 29.55125 16.498751 30.86375 17.5625 32.00375ZM 32.4925 18.04125C 33.611252 19.2125 34.432499 20.561251 34.879997 22.091251C 34.130001 22.463749 33.537498 23.106249 33.23 23.8925L 29.155001 23.8925C 29.290001 23.001249 29.563749 22.168749 29.93 21.51C 30.127485 21.156185 30.070972 20.71492 29.790693 20.422295C 29.510414 20.129667 29.071997 20.054192 28.710001 20.23625C 27.580832 20.814686 26.331192 21.118744 25.0625 21.123749C 23.793806 21.118744 22.544167 20.814686 21.414999 20.236248C 21.059616 20.058285 20.630203 20.127945 20.349302 20.409128C 20.068401 20.690311 19.999176 21.119797 20.1775 21.475C 20.562847 22.235611 20.828876 23.050983 20.966249 23.8925L 16.772501 23.8925C 16.482048 23.152218 15.941034 22.537329 15.24375 22.155001C 15.7 20.605 16.518749 19.164999 17.57 18.077499C 18.616541 18.689796 19.910704 18.695333 20.962446 18.092014C 22.014189 17.488695 22.662731 16.36875 22.6625 15.15625L 22.6625 15.13875C 23.431452 14.980504 24.214956 14.90383 25 14.91C 25.8575 14.91 26.615 14.9725 27.3375 15.135L 27.3375 15.15625C 27.337101 16.381603 27.999193 17.511427 29.068417 18.109964C 30.137642 18.7085 31.446911 18.682217 32.491249 18.04125Z"></path></g></g></g><g id="g-root-ic_squa_meualbnx258m-fill" data-item-order="999999100" transform="translate(288, 542)"><g id="ic_squa_meualbnx258m-fill" stroke="none" fill="#484848"><g><path d="M 38.666252 17.33375C 39.466251 17.33375 40 16.799999 40 16L 40 11.33375C 40 10.53375 39.466251 10 38.666252 10L 34 10C 33.200001 10 32.666248 10.53375 32.666248 11.33375L 32.666248 16C 32.666248 16.799999 33.200001 17.33375 34 17.33375L 38.666252 17.33375ZM 21.25 29.4375C 21.25 30.1875 20.75 30.6875 20 30.6875L 11.25 30.6875C 10.5 30.6875 10 30.1875 10 29.4375L 10 20.6875C 10 19.9375 10.5 19.4375 11.25 19.4375L 20 19.4375C 20.75 19.4375 21.25 19.9375 21.25 20.6875L 21.25 29.4375ZM 40 27.33375C 40 28.133751 39.466251 28.66625 38.666252 28.66625L 34 28.66625C 33.200001 28.66625 32.666248 28.133751 32.666248 27.33375L 32.666248 22.66625C 32.666248 21.866249 33.200001 21.33375 34 21.33375L 38.666252 21.33375C 39.466251 21.33375 40 21.866249 40 22.66625L 40 27.33375ZM 40 38.666252C 40 39.466251 39.466251 40 38.666252 40L 34 40C 33.200001 40 32.666248 39.466251 32.666248 38.666252L 32.666248 34C 32.666248 33.200001 33.200001 32.666248 34 32.666248L 38.666252 32.666248C 39.466251 32.666248 40 33.200001 40 34L 40 38.666252ZM 23.125 23.559999L 30.791248 13.87125L 30.791248 16C 30.791248 16.50625 30.897501 17.014999 31.125 17.47875L 26.112501 23.8125L 30.791248 23.8125L 30.791248 26.3125L 26.11375 26.3125L 31.088751 32.599998C 30.890448 33.03997 30.788992 33.51741 30.791248 34L 30.791248 36.25375L 23.125 26.56625L 23.125 23.559999Z"></path></g></g></g><g id="g-root-ic_2_1hf2x3znwzcay-fill" data-item-order="999999100" transform="translate(224, 283)"><g id="ic_2_1hf2x3znwzcay-fill" stroke="none" fill="#484848"><g><path d="M 25.25 15.625C 24.938293 12.785695 22.54385 10.633388 19.6875 10.625L 15.9375 10.625C 13.081149 10.633388 10.686707 12.785695 10.375 15.625ZM 16.25 35.9375L 20 35.9375L 20 40L 16.25 40ZM 16.25 23.4375L 20 23.4375L 20 27.8125L 16.25 27.8125ZM 16.25 29.6875L 20 29.6875L 20 34.0625L 16.25 34.0625ZM 14.375 17.5L 10.3125 17.5L 10.3125 39.375C 10.3125 39.720177 10.592322 40 10.9375 40L 14.375 40ZM 16.25 17.5L 20 17.5L 20 21.5625L 16.25 21.5625ZM 32.8125 27.5L 32.1875 27.5L 32.1875 26.875C 32.1875 26.184643 31.627855 25.625 30.9375 25.625C 30.247145 25.625 29.6875 26.184643 29.6875 26.875L 29.6875 33.75C 29.6875 34.440353 30.247145 35 30.9375 35C 31.627855 35 32.1875 34.440353 32.1875 33.75L 32.1875 33.125L 32.8125 33.125C 33.502853 33.125 34.0625 33.684647 34.0625 34.375L 34.0625 37.5L 25.3125 37.5L 25.3125 33.125L 27.8125 33.125L 27.8125 27.5L 25.3125 27.5L 25.3125 17.5L 21.875 17.5L 21.875 40L 39.0625 40C 39.407677 40 39.6875 39.720177 39.6875 39.375L 39.6875 34.375C 39.680622 30.580898 36.606606 27.506882 32.8125 27.5Z"></path></g></g></g><g id="g-root-ic_heat_1lw5dennwwjr4-fill" data-item-order="999999100" transform="translate(36, 283)"><g id="ic_heat_1lw5dennwwjr4-fill" stroke="none" fill="#484848"><g><path d="M 39.649998 24.75L 25.9 10.375C 25.664396 10.13056 25.3395 9.992468 25 9.992468C 24.6605 9.992468 24.335604 10.13056 24.1 10.375L 10.35 24.75C 9.999623 25.112244 9.901052 25.649464 10.1 26.112501C 10.299441 26.569485 10.751392 26.864237 11.25 26.862499L 13.125 26.862499C 13.292949 26.862467 13.453844 26.930027 13.571421 27.049955C 13.688996 27.169884 13.753359 27.332085 13.75 27.5L 13.75 38.125C 13.75 39.160534 14.589466 40 15.625 40L 34.375 40C 35.410534 40 36.25 39.160534 36.25 38.125L 36.25 27.5C 36.25 27.154823 36.529823 26.875 36.875 26.875L 38.75 26.875C 39.251598 26.874592 39.704376 26.574381 39.900002 26.112501C 40.098949 25.649464 40.000378 25.112244 39.649998 24.75ZM 22.4 35.775002C 22.242039 35.872131 22.060434 35.924019 21.875 35.924999C 21.56315 35.928978 21.270866 35.773407 21.1 35.512501C 20.843653 35.094563 20.952627 34.54969 21.35 34.262501C 22.148722 33.722034 22.680346 32.867798 22.8125 31.9125C 22.677334 30.958292 22.146412 30.105186 21.35 29.5625C 20.034027 28.678072 19.192156 27.24275 19.0625 25.6625C 19.180971 24.065344 20.023682 22.610174 21.35 21.7125C 21.769903 21.452118 22.320311 21.567703 22.6 21.975C 22.856348 22.392937 22.747374 22.937809 22.35 23.225C 21.549576 23.75812 21.016876 24.609528 20.887501 25.5625C 21.022665 26.516706 21.553589 27.369814 22.35 27.9125C 23.663252 28.799484 24.504286 30.233379 24.637501 31.8125C 24.529032 33.40366 23.706497 34.860325 22.4 35.774998ZM 29.9 35.775002C 29.742039 35.872131 29.560434 35.924019 29.375 35.924999C 29.06315 35.928978 28.770866 35.773407 28.600002 35.512501C 28.343655 35.094563 28.452627 34.54969 28.85 34.262501C 29.648722 33.722034 30.180347 32.867798 30.3125 31.9125C 30.177336 30.958292 29.646412 30.105186 28.85 29.5625C 27.534027 28.678072 26.692156 27.24275 26.5625 25.6625C 26.695713 24.083378 27.536747 22.649483 28.85 21.762501C 29.269903 21.502117 29.820311 21.617702 30.1 22.025C 30.356348 22.442936 30.247374 22.987808 29.85 23.275C 29.049576 23.808119 28.516876 24.659527 28.387501 25.612499C 28.522665 26.566708 29.053589 27.419813 29.85 27.9625C 31.163252 28.849483 32.004284 30.283377 32.137497 31.862499C 32.014412 33.435684 31.193493 34.871147 29.9 35.774998Z"></path></g></g></g><g id="g-root-ic_2_18itfrznx6c5h-fill" data-item-order="999999100" transform="translate(130, 661)"><g id="ic_2_18itfrznx6c5h-fill" stroke="none" fill="#484848"><g><path d="M 16.9725 12.2925C 17.460928 11.804419 17.461206 11.012802 16.973125 10.524375C 16.485044 10.035948 15.693427 10.035668 15.205001 10.52375L 13.17 12.55875L 12.57875 11.9675C 12.090669 11.479074 11.299052 11.478793 10.810625 11.966875C 10.322198 12.454957 10.321918 13.246573 10.81 13.735001L 12.28625 15.21C 12.774375 15.697977 13.565625 15.697977 14.05375 15.21L 16.9725 12.2925ZM 19.272501 28.4C 19.602827 30.351076 20.541254 32.147869 21.953751 33.533752L 21.953751 39.139999C 21.953751 39.485176 22.233572 39.764999 22.578751 39.764999L 32.423748 39.764999C 32.768929 39.764999 33.048748 39.485176 33.048748 39.139999L 33.048748 36.952499L 33.829998 36.952499C 35.728477 36.952499 37.267502 35.413479 37.267502 33.514999L 37.267498 31.327499L 38.424999 31.327499C 38.862885 31.327694 39.272701 31.111935 39.520363 30.750813C 39.768024 30.389692 39.821671 29.929668 39.66375 29.521252C 39.465 29.005001 39.271248 28.48875 39.078751 27.977501C 38.138748 25.475 37.235001 23.07 35.946251 21.217501C 35.158752 20.0825 34.208752 19.125 32.990002 18.455C 31.77125 17.783751 30.318748 17.42 28.55625 17.42C 28.481251 17.42 28.403749 17.42 28.327499 17.422501C 29.031807 18.18483 29.311678 19.247093 29.074423 20.257492C 28.83717 21.267891 28.11375 22.09457 27.143749 22.463749C 28.554136 22.99962 29.380266 24.466656 29.107241 25.950504C 28.834213 27.434351 27.540007 28.511248 26.03125 28.51L 20.0975 28.51C 19.8125 28.51 19.536251 28.471251 19.27375 28.4ZM 10.1725 24.202501C 10.1725 23.512144 10.732144 22.952501 11.4225 22.952501L 15.872499 22.952501C 16.562857 22.952501 17.122499 23.512144 17.122499 24.202501L 17.122499 28.592499C 17.122499 29.282856 16.562857 29.842499 15.872499 29.842499L 11.4225 29.842499C 10.732144 29.842499 10.1725 29.282856 10.1725 28.592499L 10.1725 24.202501ZM 12.6725 25.452501L 12.6725 27.342499L 14.622499 27.342499L 14.622499 25.452501L 12.6725 25.452501ZM 16.973749 16.852499C 17.461727 17.340626 17.461727 18.131876 16.973749 18.619999L 14.05375 21.53875C 13.565625 22.026728 12.774375 22.026728 12.28625 21.53875L 10.81125 20.063749C 10.322824 19.575668 10.322543 18.784052 10.810625 18.295626C 11.298707 17.807199 12.090323 17.806919 12.578751 18.295L 13.17 18.887501L 15.205 16.852499C 15.693125 16.364523 16.484375 16.364523 16.9725 16.852499ZM 20.098751 12.4975C 19.408394 12.4975 18.848749 13.057144 18.848749 13.747499C 18.848749 14.437856 19.408394 14.997499 20.098751 14.997499L 26.032501 14.997499C 26.722855 14.997499 27.282501 14.437856 27.282501 13.747499C 27.282501 13.057144 26.722855 12.4975 26.032501 12.4975L 20.0975 12.4975ZM 18.848749 19.5425C 18.848749 18.852144 19.408394 18.2925 20.098751 18.2925L 26.032501 18.2925C 26.722855 18.2925 27.282501 18.852144 27.282501 19.5425C 27.282501 20.232857 26.722855 20.7925 26.032501 20.7925L 20.0975 20.7925C 19.407145 20.7925 18.8475 20.232857 18.8475 19.5425ZM 20.098751 24.135C 19.408394 24.135 18.848749 24.694645 18.848749 25.385C 18.848749 26.075356 19.408394 26.635 20.098751 26.635L 26.032501 26.635C 26.722855 26.635 27.282501 26.075356 27.282501 25.385C 27.282501 24.694645 26.722855 24.135 26.032501 24.135L 20.0975 24.135Z"></path></g></g></g><g id="g-root-ic_natu_4hxx5rnxg7id-fill" data-item-order="999999100" transform="translate(118, 143)"><g id="ic_natu_4hxx5rnxg7id-fill" stroke="none" fill="#484848"><g><path d="M 12.5 16.25L 31.25 16.25C 31.452869 16.249031 31.643166 16.151562 31.762501 15.9875C 31.880451 15.815095 31.908356 15.596507 31.8375 15.4L 30.262499 11.25C 29.999836 10.506961 29.300564 10.007481 28.512501 10L 15.2375 10C 14.449436 10.007481 13.750164 10.506961 13.4875 11.25L 11.9125 15.400001C 11.841644 15.596507 11.869549 15.815095 11.9875 15.987499C 12.106834 16.151562 12.297131 16.249031 12.5 16.25ZM 38.75 37.5L 36.875 37.5C 36.702412 37.5 36.5625 37.360088 36.5625 37.1875L 36.5625 36.587502C 36.566921 36.467407 36.63982 36.360489 36.75 36.3125C 37.769913 35.867393 38.43148 34.862793 38.4375 33.75C 37.870392 30.737602 37.140152 27.758219 36.25 24.825001C 36.17028 24.545937 35.915222 24.353535 35.624996 24.353535C 35.334774 24.353535 35.079716 24.545937 34.999996 24.824999C 34.109848 27.758219 33.379608 30.737602 32.8125 33.75C 32.81852 34.862793 33.480087 35.867393 34.5 36.3125C 34.61018 36.360489 34.683079 36.467407 34.6875 36.587502L 34.6875 37.1875C 34.6875 37.360088 34.547588 37.5 34.375 37.5L 30.3125 37.5C 30.139912 37.5 30 37.360088 30 37.1875L 30 17.8125C 30 17.639912 29.860088 17.5 29.6875 17.5L 14.0625 17.5C 13.889911 17.5 13.75 17.639912 13.75 17.8125L 13.75 37.1875C 13.75 37.360088 13.610089 37.5 13.4375 37.5L 11.25 37.5C 10.559644 37.5 10 38.059647 10 38.75C 10 39.440353 10.559644 40 11.25 40L 38.75 40C 39.440353 40 40 39.440353 40 38.75C 40 38.059647 39.440353 37.5 38.75 37.5ZM 16.875 20.9375L 20 20.9375C 20.517767 20.9375 20.9375 21.357233 20.9375 21.875C 20.9375 22.392767 20.517767 22.8125 20 22.8125L 16.875 22.8125C 16.357233 22.8125 15.9375 22.392767 15.9375 21.875C 15.9375 21.357233 16.357233 20.9375 16.875 20.9375ZM 15.9375 27.5C 15.944232 26.985046 16.360048 26.569231 16.875 26.5625L 20 26.5625C 20.517767 26.5625 20.9375 26.982233 20.9375 27.5C 20.9375 28.017767 20.517767 28.4375 20 28.4375L 16.875 28.4375C 16.360048 28.430767 15.944232 28.014952 15.9375 27.5ZM 23.75 37.1875C 23.75 37.360088 23.610088 37.5 23.4375 37.5L 20.3125 37.5C 20.139912 37.5 20 37.360088 20 37.1875L 20 34.375C 20 33.339466 20.839466 32.5 21.875 32.5C 22.910534 32.5 23.75 33.339466 23.75 34.375ZM 26.875 28.4375L 23.75 28.4375C 23.232233 28.4375 22.8125 28.017767 22.8125 27.5C 22.8125 26.982233 23.232233 26.5625 23.75 26.5625L 26.875 26.5625C 27.392767 26.5625 27.8125 26.982233 27.8125 27.5C 27.8125 28.017767 27.392767 28.4375 26.875 28.4375ZM 26.875 22.8125L 23.75 22.8125C 23.232233 22.8125 22.8125 22.392767 22.8125 21.875C 22.8125 21.357233 23.232233 20.9375 23.75 20.9375L 26.875 20.9375C 27.392767 20.9375 27.8125 21.357233 27.8125 21.875C 27.8125 22.392767 27.392767 22.8125 26.875 22.8125Z"></path></g></g></g><g id="g-root-tx_rlalgori_1i13znx0r2e-fill" data-item-order="1000000000" transform="translate(166, 414)"><g id="tx_rlalgori_1i13znx0r2e-fill" stroke="none" fill="#ffffff"><g><text style="font: 20px Roboto, sans-serif; white-space: pre;" font-size="20px" font-family="Roboto, sans-serif"><tspan x="12" y="34" dominant-baseline="ideographic">RL </tspan><tspan x="12" y="58" dominant-baseline="ideographic">Algorithms</tspan></text></g></g></g><g id="g-root-tx_bestesta_1qapxcvnwzbi9-fill" data-item-order="1000000000" transform="translate(260, 274)"><g id="tx_bestesta_1qapxcvnwzbi9-fill" stroke="none" fill="#ffffff"><g><text style="font: 20px Roboto, sans-serif; white-space: pre;" font-size="20px" font-family="Roboto, sans-serif"><tspan x="12" y="34" dominant-baseline="ideographic">BESTEST Air </tspan><tspan x="12" y="58" dominant-baseline="ideographic">System</tspan></text></g></g></g><g id="g-root-tx_ppo_dhbv33nx0sub-fill" data-item-order="1000000000" transform="translate(68, 545)"><g id="tx_ppo_dhbv33nx0sub-fill" stroke="none" fill="#ffffff"><g><text style="font: 20px Roboto, sans-serif; white-space: pre;" font-size="20px" font-family="Roboto, sans-serif"><tspan x="12" y="34" dominant-baseline="ideographic">PPO</tspan></text></g></g></g><g id="g-root-tx_dqn_1q6z2u7nx26mg-fill" data-item-order="1000000000" transform="translate(196, 545)"><g id="tx_dqn_1q6z2u7nx26mg-fill" stroke="none" fill="#ffffff"><g><text style="font: 20px Roboto, sans-serif; white-space: pre;" font-size="20px" font-family="Roboto, sans-serif"><tspan x="12" y="34" dominant-baseline="ideographic">DQN</tspan></text></g></g></g><g id="g-root-tx_a2c_meualbnx258l-fill" data-item-order="1000000000" transform="translate(324, 545)"><g id="tx_a2c_meualbnx258l-fill" stroke="none" fill="#ffffff"><g><text style="font: 20px Roboto, sans-serif; white-space: pre;" font-size="20px" font-family="Roboto, sans-serif"><tspan x="12" y="34" dominant-baseline="ideographic">A2C</tspan></text></g></g></g><g id="g-root-tx_bestesth_1qbyvj3nwwiyv-fill" data-item-order="1000000000" transform="translate(72, 262)"><g id="tx_bestesth_1qbyvj3nwwiyv-fill" stroke="none" fill="#ffffff"><g><text style="font: 20px Roboto, sans-serif; white-space: pre;" font-size="20px" font-family="Roboto, sans-serif"><tspan x="12" y="34" dominant-baseline="ideographic">BESTEST </tspan><tspan x="12" y="58" dominant-baseline="ideographic">Hydronic </tspan><tspan x="12" y="82" dominant-baseline="ideographic">Heat Pump</tspan></text></g></g></g><g id="g-root-tx_evaluati_1cy0gtbnx6ej0-fill" data-item-order="1000000000" transform="translate(166, 652)"><g id="tx_evaluati_1cy0gtbnx6ej0-fill" stroke="none" fill="#ffffff"><g><text style="font: 20px Roboto, sans-serif; white-space: pre;" font-size="20px" font-family="Roboto, sans-serif"><tspan x="12" y="34" dominant-baseline="ideographic">Evaluation </tspan><tspan x="12" y="58" dominant-baseline="ideographic">Metrics</tspan></text></g></g></g><g id="g-root-tx_bopteste_8xrfa7nxg6q4-fill" data-item-order="1000000000" transform="translate(154, 134)"><g id="tx_bopteste_8xrfa7nxg6q4-fill" stroke="none" fill="#ffffff"><g><text style="font: 20px Roboto, sans-serif; white-space: pre;" font-size="20px" font-family="Roboto, sans-serif"><tspan x="12" y="34" dominant-baseline="ideographic">BOPTEST </tspan><tspan x="12" y="58" dominant-baseline="ideographic">Environments</tspan></text></g></g></g><g id="g-root-tf_4mxpunnxesr1-stroke" data-item-order="-512820"></g><g id="g-root-ro_1cz9ezjnwzd37-stroke" data-item-order="-18432" transform="translate(212, 250)"><g id="ro_1cz9ezjnwzd37-stroke" fill="none" stroke-linecap="round" stroke-linejoin="round" stroke-miterlimit="4" stroke="#ffffff" stroke-width="2"><g><path d="M 22 10L 190 10C 190 10 202 10 202 22L 202 94C 202 94 202 106 190 106L 22 106C 22 106 10 106 10 94L 10 22C 10 22 10 10 22 10"></path></g></g></g><g id="g-root-ro_1lw5dennwwjr5-stroke" data-item-order="-16128" transform="translate(24, 250)"><g id="ro_1lw5dennwwjr5-stroke" fill="none" stroke-linecap="round" stroke-linejoin="round" stroke-miterlimit="4" stroke="#ffffff" stroke-width="2"><g><path d="M 22 10L 166 10C 166 10 178 10 178 22L 178 94C 178 94 178 106 166 106L 22 106C 22 106 10 106 10 94L 10 22C 10 22 10 10 22 10"></path></g></g></g><g id="g-root-ro_1uneyvznxg83y-stroke" data-item-order="-13824" transform="translate(106, 122)"><g id="ro_1uneyvznxg83y-stroke" fill="none" stroke-linecap="round" stroke-linejoin="round" stroke-miterlimit="4" stroke="#ffffff" stroke-width="2"><g><path d="M 22 10L 190 10C 190 10 202 10 202 22L 202 70C 202 70 202 82 190 82L 22 82C 22 82 10 82 10 70L 10 22C 10 22 10 10 22 10"></path></g></g></g><g id="g-root-ro_1umskynnx0rnk-stroke" data-item-order="-12096" transform="translate(118, 402)"><g id="ro_1umskynnx0rnk-stroke" fill="none" stroke-linecap="round" stroke-linejoin="round" stroke-miterlimit="4" stroke="#ffffff" stroke-width="2"><g><path d="M 22 10L 166 10C 166 10 178 10 178 22L 178 70C 178 70 178 82 166 82L 22 82C 22 82 10 82 10 70L 10 22C 10 22 10 10 22 10"></path></g></g></g><g id="g-root-ro_zn6fj3nx6cy6-stroke" data-item-order="-12096" transform="translate(118, 640)"><g id="ro_zn6fj3nx6cy6-stroke" fill="none" stroke-linecap="round" stroke-linejoin="round" stroke-miterlimit="4" stroke="#ffffff" stroke-width="2"><g><path d="M 22 10L 166 10C 166 10 178 10 178 22L 178 70C 178 70 178 82 166 82L 22 82C 22 82 10 82 10 70L 10 22C 10 22 10 10 22 10"></path></g></g></g><g id="g-root-ro_dj7acfnx261b-stroke" data-item-order="-5832" transform="translate(276, 530)"><g id="ro_dj7acfnx261b-stroke" fill="none" stroke-linecap="round" stroke-linejoin="round" stroke-miterlimit="4" stroke="#ffffff" stroke-width="2"><g><path d="M 22 10L 106 10C 106 10 118 10 118 22L 118 52C 118 52 118 64 106 64L 22 64C 22 64 10 64 10 52L 10 22C 10 22 10 10 22 10"></path></g></g></g><g id="g-root-ro_1lr5kprnx27eq-stroke" data-item-order="-5832" transform="translate(148, 530)"><g id="ro_1lr5kprnx27eq-stroke" fill="none" stroke-linecap="round" stroke-linejoin="round" stroke-miterlimit="4" stroke="#ffffff" stroke-width="2"><g><path d="M 22 10L 106 10C 106 10 118 10 118 22L 118 52C 118 52 118 64 106 64L 22 64C 22 64 10 64 10 52L 10 22C 10 22 10 10 22 10"></path></g></g></g><g id="g-root-ro_6htsvnx0r9h-stroke" data-item-order="-5832" transform="translate(20, 530)"><g id="ro_6htsvnx0r9h-stroke" fill="none" stroke-linecap="round" stroke-linejoin="round" stroke-miterlimit="4" stroke="#ffffff" stroke-width="2"><g><path d="M 22 10L 106 10C 106 10 118 10 118 22L 118 52C 118 52 118 64 106 64L 22 64C 22 64 10 64 10 52L 10 22C 10 22 10 10 22 10"></path></g></g></g><g id="g-root-tx_bopteste_qva9svnx6dc8-stroke" data-item-order="0" transform="translate(14, 38)"></g><g id="g-root-cu_zqasynnx6ex6-stroke" data-item-order="2" transform="translate(74, 474)"><g id="cu_zqasynnx6ex6-stroke" fill="none" stroke-linecap="round" stroke-linejoin="round" stroke-miterlimit="4" stroke="#484848" stroke-width="2"><g><path d="M 138 10L 138 24L 138 38L 74 38L 10 38L 10 52L 10 64"></path><path d="M 3.5 58L 10 64.5L 16.5 58" stroke-dasharray="none"></path></g></g></g><g id="g-root-cu_vb3rxbnx6cjp-stroke" data-item-order="2" transform="translate(202, 474)"><g id="cu_vb3rxbnx6cjp-stroke" fill="none" stroke-linecap="round" stroke-linejoin="round" stroke-miterlimit="4" stroke="#484848" stroke-width="2"><g><path d="M 10 10L 10 38L 10 64"></path><path d="M 3.5 58L 10 64.5L 16.5 58" stroke-dasharray="none"></path></g></g></g><g id="g-root-cu_vb3rxbnx6cjr-stroke" data-item-order="2" transform="translate(202, 474)"><g id="cu_vb3rxbnx6cjr-stroke" fill="none" stroke-linecap="round" stroke-linejoin="round" stroke-miterlimit="4" stroke="#484848" stroke-width="2"><g><path d="M 10 10L 10 24L 10 38L 74 38L 138 38L 138 52L 138 64"></path><path d="M 131.5 58L 138 64.5L 144.5 58" stroke-dasharray="none"></path></g></g></g><g id="g-root-cu_zqasynnx6ewz-stroke" data-item-order="2" transform="translate(202, 194)"><g id="cu_zqasynnx6ewz-stroke" fill="none" stroke-linecap="round" stroke-linejoin="round" stroke-miterlimit="4" stroke="#484848" stroke-width="2"><g><path d="M 10 10L 10 24L 10 38L 63 38L 116 38L 116 52L 116 64"></path><path d="M 109.5 58L 116 64.5L 122.5 58" stroke-dasharray="none"></path></g></g></g><g id="g-root-cu_vb3rxbnx6cjt-stroke" data-item-order="2" transform="translate(74, 584)"><g id="cu_vb3rxbnx6cjt-stroke" fill="none" stroke-linecap="round" stroke-linejoin="round" stroke-miterlimit="4" stroke="#484848" stroke-width="2"><g><path d="M 10 10L 10 24L 10 38L 74 38L 138 38L 138 52L 138 64"></path><path d="M 131.5 58L 138 64.5L 144.5 58" stroke-dasharray="none"></path></g></g></g><g id="g-root-cu_vb3rxbnx6cjw-stroke" data-item-order="2" transform="translate(202, 584)"><g id="cu_vb3rxbnx6cjw-stroke" fill="none" stroke-linecap="round" stroke-linejoin="round" stroke-miterlimit="4" stroke="#484848" stroke-width="2"><g><path d="M 10 10L 10 38L 10 64"></path><path d="M 3.5 58L 10 64.5L 16.5 58" stroke-dasharray="none"></path></g></g></g><g id="g-root-cu_zqasynnx6ex4-stroke" data-item-order="2" transform="translate(202, 346)"><g id="cu_zqasynnx6ex4-stroke" fill="none" stroke-linecap="round" stroke-linejoin="round" stroke-miterlimit="4" stroke="#484848" stroke-width="2"><g><path d="M 116 10L 116 24L 116 38L 63 38L 10 38L 10 52L 10 64"></path><path d="M 3.5 58L 10 64.5L 16.5 58" stroke-dasharray="none"></path></g></g></g><g id="g-root-cu_1464b33nx6e4o-stroke" data-item-order="2" transform="translate(108, 194)"><g id="cu_1464b33nx6e4o-stroke" fill="none" stroke-linecap="round" stroke-linejoin="round" stroke-miterlimit="4" stroke="#484848" stroke-width="2"><g><path d="M 104 10L 104 24L 104 38L 57 38L 10 38L 10 52L 10 64"></path><path d="M 3.5 58L 10 64.5L 16.5 58" stroke-dasharray="none"></path></g></g></g><g id="g-root-cu_zqasynnx6ex1-stroke" data-item-order="2" transform="translate(108, 346)"><g id="cu_zqasynnx6ex1-stroke" fill="none" stroke-linecap="round" stroke-linejoin="round" stroke-miterlimit="4" stroke="#484848" stroke-width="2"><g><path d="M 10 10L 10 24L 10 38L 57 38L 104 38L 104 52L 104 64"></path><path d="M 97.5 58L 104 64.5L 110.5 58" stroke-dasharray="none"></path></g></g></g><g id="g-root-cu_qva9svnx6dc6-stroke" data-item-order="2" transform="translate(202, 584)"><g id="cu_qva9svnx6dc6-stroke" fill="none" stroke-linecap="round" stroke-linejoin="round" stroke-miterlimit="4" stroke="#484848" stroke-width="2"><g><path d="M 138 10L 138 24L 138 38L 74 38L 10 38L 10 52L 10 64"></path><path d="M 3.5 58L 10 64.5L 16.5 58" stroke-dasharray="none"></path></g></g></g><g id="g-root-ic_robo_1q6z2u7nx0rnz-stroke" data-item-order="999999100" transform="translate(130, 423)"></g><g id="g-root-ic_1_4mbbxbnx0qh8-stroke" data-item-order="999999100" transform="translate(32, 542)"></g><g id="g-root-ic_mq_1lr5kprnx27ep-stroke" data-item-order="999999100" transform="translate(160, 542)"></g><g id="g-root-ic_squa_meualbnx258m-stroke" data-item-order="999999100" transform="translate(288, 542)"></g><g id="g-root-ic_2_1hf2x3znwzcay-stroke" data-item-order="999999100" transform="translate(224, 283)"></g><g id="g-root-ic_heat_1lw5dennwwjr4-stroke" data-item-order="999999100" transform="translate(36, 283)"></g><g id="g-root-ic_2_18itfrznx6c5h-stroke" data-item-order="999999100" transform="translate(130, 661)"></g><g id="g-root-ic_natu_4hxx5rnxg7id-stroke" data-item-order="999999100" transform="translate(118, 143)"></g><g id="g-root-tx_rlalgori_1i13znx0r2e-stroke" data-item-order="1000000000" transform="translate(166, 414)"></g><g id="g-root-tx_bestesta_1qapxcvnwzbi9-stroke" data-item-order="1000000000" transform="translate(260, 274)"></g><g id="g-root-tx_ppo_dhbv33nx0sub-stroke" data-item-order="1000000000" transform="translate(68, 545)"></g><g id="g-root-tx_dqn_1q6z2u7nx26mg-stroke" data-item-order="1000000000" transform="translate(196, 545)"></g><g id="g-root-tx_a2c_meualbnx258l-stroke" data-item-order="1000000000" transform="translate(324, 545)"></g><g id="g-root-tx_bestesth_1qbyvj3nwwiyv-stroke" data-item-order="1000000000" transform="translate(72, 262)"></g><g id="g-root-tx_evaluati_1cy0gtbnx6ej0-stroke" data-item-order="1000000000" transform="translate(166, 652)"></g><g id="g-root-tx_bopteste_8xrfa7nxg6q4-stroke" data-item-order="1000000000" transform="translate(154, 134)"></g></g></g><path id="wqqx7ofo70c23" d="M65.283 12.757a.35.35 0 0 0 .584.157l5.203-5.141-6.183 3.523.396 1.461zm-2.216-11.7a.35.35 0 0 0-.522.305v3.111l3.276-1.868-2.754-1.548zm3.728 2.105l-4.25 2.421v2.445l6.391-3.644-2.141-1.222zm4.708 3.303a.35.35 0 0 0 0-.609l-1.592-.9-7.365 4.199v1.782a.35.35 0 0 0 .523.305l8.435-4.777z M44.542 2.513c0-.433.355-.783.792-.783s.792.35.792.783-.355.783-.792.783-.792-.35-.792-.783zm59.171 0c0-.433.355-.783.792-.783s.792.35.792.783-.355.783-.792.783-.792-.35-.792-.783zm-85.951 7.636h-1.27v-.487c-.276.201-.864.609-1.881.609-1.202 0-2.274-.794-2.137-2.078.118-1.106 1.153-1.584 1.848-1.727l2.17-.345c0-.539-.29-.956-1.064-1.006s-1.21.305-1.571 1.017l-1.124-.605c1.218-2.631 5.029-1.764 5.029.414v4.207zm-1.27-2.86c.006.396-.062 1.112-.819 1.59-.587.37-1.841.299-1.903-.395-.049-.555.461-.791.906-.898l1.816-.297zm72.662 2.86h-1.27v-.487c-.276.201-.864.609-1.881.609-1.202 0-2.274-.794-2.137-2.078.118-1.106 1.153-1.584 1.848-1.727l2.17-.345c0-.539-.29-.956-1.064-1.006s-1.21.305-1.571 1.017l-1.124-.605c1.218-2.631 5.029-1.764 5.029.414v4.207zm-1.27-2.86c.006.396-.062 1.112-.82 1.59-.587.37-1.841.299-1.903-.395-.049-.555.461-.791.906-.898l1.816-.297zM99.096 10.149H97.85v-8.45h1.246v4.895l2.68-2.559h1.738l-2.633 2.535 2.715 3.578h-1.556l-2.077-2.707-.867.844v1.863zm6.053-6.114h-1.255v6.113h1.255V4.035zm-59.2 0h-1.255v6.113h1.255V4.035zm5.584 6.113V1.697h1.255v2.695c.361-.346 1-.485 1.47-.485 1.452 0 2.477 1.082 2.457 2.448v3.792h-1.27v-3.68c0-.408-.214-1.339-1.315-1.339-.968 0-1.342.756-1.342 1.339v3.681h-1.255zm-4.76-4.894V4.039h.621a.45.45 0 0 0 .45-.45v-.855h1.251v1.305h1.309v1.215h-1.309v3.109c0 .293.105.664.648.664.365 0 .531-.035.736-.07v1.137s-.361.113-.857.113c-1.398 0-1.777-1.051-1.777-1.788V5.254h-1.071zM36.528 4.039h-1.394l2.191 6.106h1.125l1.234-3.918 1.238 3.918h1.129l2.188-6.106h-1.383l-1.359 3.93-1.256-3.93h-1.124l-1.242 3.957-1.348-3.957zM26.212 7.141c-.02 1.566 1.187 3.129 3.223 3.129 1.566 0 2.383-.918 2.734-1.719L31.172 8c-.315.399-.801 1.094-1.738 1.094-1.145 0-1.825-.781-1.891-1.52h4.625c.074-.284.148-.995-.03-1.559-.336-1.064-1.221-2.102-2.839-2.102s-3.088 1.152-3.088 3.227zm1.363-.75h3.348c-.055-.43-.566-1.301-1.623-1.301a1.79 1.79 0 0 0-1.725 1.301zm-8.758.75c.038 1.758 1.277 3.133 3.145 3.133 1.074 0 1.723-.477 1.961-.672v.547h1.242V1.703h-1.258v2.888c-.414-.36-1.062-.68-1.93-.68-1.91 0-3.198 1.473-3.16 3.23zm1.309-.08c0 1.119.723 1.978 1.836 1.978a1.88 1.88 0 0 0 1.94-1.904c0-1.371-1.011-1.99-1.972-1.99s-1.805.798-1.805 1.916zm76.683-.028C96.771 5.275 95.532 3.9 93.664 3.9c-1.074 0-1.723.477-1.961.672v-.547h-1.242v8.22h1.258V9.583c.414.36 1.063.68 1.93.68 1.91 0 3.198-1.473 3.16-3.23zm-1.309.08c0-1.119-.723-1.978-1.836-1.978a1.88 1.88 0 0 0-1.94 1.904c0 1.371 1.011 1.99 1.972 1.99S95.5 8.231 95.5 7.113zM106.441 10.173V4.036h1.254v.382c.361-.346 1-.485 1.47-.485 1.452 0 2.477 1.082 2.457 2.448v3.792h-1.27V6.492c0-.408-.214-1.339-1.315-1.339-.969 0-1.342.756-1.342 1.339v3.681h-1.254zm-30.383-.021V1.824h1.084l4.215 5.777V1.824h1.32v8.328h-1.094l-4.207-5.796v5.796h-1.319zM5.24 10.149H4V2.377h1.014l2.664 3.597 2.654-3.592h1.03v7.766h-1.256V4.762L7.678 8.068 5.24 4.742v5.407z" transform="translate(12.52996826171875, 743.4700927734375)" fill="#80808088" stroke="none"></path></svg>